<mxfile host="app.diagrams.net" modified="2023-02-27T02:51:22.909Z" agent="5.0 (Macintosh; Intel Mac OS X 10_15_7) AppleWebKit/605.1.15 (KHTML, like Gecko) Version/15.6.1 Safari/605.1.15" etag="qStru7hi0Em46sWjuBtg" version="20.8.23" type="github">
  <diagram name="第 1 页" id="sqQpHCvgctDliyLKy5rX">
    <mxGraphModel dx="2293" dy="2156" grid="1" gridSize="10" guides="1" tooltips="1" connect="1" arrows="1" fold="1" page="1" pageScale="1" pageWidth="827" pageHeight="1169" math="0" shadow="0">
      <root>
        <mxCell id="0" />
        <mxCell id="1" parent="0" />
        <mxCell id="9nBWldFxYlAShyo2GWVR-32" style="edgeStyle=orthogonalEdgeStyle;rounded=0;orthogonalLoop=1;jettySize=auto;html=1;exitX=0.5;exitY=1;exitDx=0;exitDy=0;fillColor=#fff2cc;strokeColor=#d6b656;endArrow=none;endFill=0;" edge="1" parent="1" source="nhXdP52gZIE5fKBT5u8z-1" target="G_AN2CLC8beRacx5l1sC-1">
          <mxGeometry relative="1" as="geometry" />
        </mxCell>
        <mxCell id="nhXdP52gZIE5fKBT5u8z-1" value="总经理" style="rounded=0;whiteSpace=wrap;html=1;fillColor=#fff2cc;strokeColor=#d6b656;" parent="1" vertex="1">
          <mxGeometry x="190" y="80" width="120" height="60" as="geometry" />
        </mxCell>
        <mxCell id="G_AN2CLC8beRacx5l1sC-3" value="" style="edgeStyle=orthogonalEdgeStyle;rounded=0;orthogonalLoop=1;jettySize=auto;html=1;fillColor=#fff2cc;strokeColor=#d6b656;endArrow=none;endFill=0;" parent="1" source="G_AN2CLC8beRacx5l1sC-1" target="G_AN2CLC8beRacx5l1sC-2" edge="1">
          <mxGeometry relative="1" as="geometry" />
        </mxCell>
        <mxCell id="9nBWldFxYlAShyo2GWVR-15" style="edgeStyle=orthogonalEdgeStyle;rounded=0;orthogonalLoop=1;jettySize=auto;html=1;exitX=0.5;exitY=1;exitDx=0;exitDy=0;entryX=0.5;entryY=0;entryDx=0;entryDy=0;fillColor=#fff2cc;strokeColor=#d6b656;endArrow=none;endFill=0;" edge="1" parent="1" source="G_AN2CLC8beRacx5l1sC-1" target="9nBWldFxYlAShyo2GWVR-13">
          <mxGeometry relative="1" as="geometry" />
        </mxCell>
        <mxCell id="G_AN2CLC8beRacx5l1sC-1" value="厂长" style="rounded=0;whiteSpace=wrap;html=1;fillColor=#fff2cc;strokeColor=#d6b656;" parent="1" vertex="1">
          <mxGeometry x="190" y="190" width="120" height="60" as="geometry" />
        </mxCell>
        <mxCell id="9nBWldFxYlAShyo2GWVR-3" value="" style="edgeStyle=orthogonalEdgeStyle;rounded=0;orthogonalLoop=1;jettySize=auto;html=1;fillColor=#fff2cc;strokeColor=#d6b656;endArrow=none;endFill=0;" edge="1" parent="1" source="G_AN2CLC8beRacx5l1sC-2" target="9nBWldFxYlAShyo2GWVR-2">
          <mxGeometry relative="1" as="geometry" />
        </mxCell>
        <mxCell id="9nBWldFxYlAShyo2GWVR-56" style="edgeStyle=orthogonalEdgeStyle;rounded=0;orthogonalLoop=1;jettySize=auto;html=1;exitX=0.5;exitY=1;exitDx=0;exitDy=0;entryX=0.5;entryY=0;entryDx=0;entryDy=0;endArrow=none;endFill=0;fillColor=#fff2cc;strokeColor=#d6b656;" edge="1" parent="1" source="G_AN2CLC8beRacx5l1sC-2" target="9nBWldFxYlAShyo2GWVR-6">
          <mxGeometry relative="1" as="geometry" />
        </mxCell>
        <mxCell id="G_AN2CLC8beRacx5l1sC-2" value="运营" style="rounded=0;whiteSpace=wrap;html=1;fillColor=#fff2cc;strokeColor=#d6b656;" parent="1" vertex="1">
          <mxGeometry x="410" y="190" width="120" height="60" as="geometry" />
        </mxCell>
        <mxCell id="9nBWldFxYlAShyo2GWVR-22" value="" style="edgeStyle=orthogonalEdgeStyle;rounded=0;orthogonalLoop=1;jettySize=auto;html=1;fillColor=#fff2cc;strokeColor=#d6b656;endArrow=none;endFill=0;" edge="1" parent="1" source="9nBWldFxYlAShyo2GWVR-1" target="nhXdP52gZIE5fKBT5u8z-1">
          <mxGeometry relative="1" as="geometry" />
        </mxCell>
        <mxCell id="9nBWldFxYlAShyo2GWVR-1" value="集团懂事长" style="rounded=0;whiteSpace=wrap;html=1;fillColor=#fff2cc;strokeColor=#d6b656;" vertex="1" parent="1">
          <mxGeometry x="190" y="-20" width="120" height="60" as="geometry" />
        </mxCell>
        <mxCell id="9nBWldFxYlAShyo2GWVR-5" value="" style="edgeStyle=orthogonalEdgeStyle;rounded=0;orthogonalLoop=1;jettySize=auto;html=1;fillColor=#fff2cc;strokeColor=#d6b656;endArrow=none;endFill=0;" edge="1" parent="1" source="9nBWldFxYlAShyo2GWVR-2" target="9nBWldFxYlAShyo2GWVR-4">
          <mxGeometry relative="1" as="geometry" />
        </mxCell>
        <mxCell id="9nBWldFxYlAShyo2GWVR-2" value="产品研发" style="rounded=0;whiteSpace=wrap;html=1;fillColor=#fff2cc;strokeColor=#d6b656;" vertex="1" parent="1">
          <mxGeometry x="640" y="190" width="120" height="60" as="geometry" />
        </mxCell>
        <mxCell id="9nBWldFxYlAShyo2GWVR-33" style="edgeStyle=orthogonalEdgeStyle;rounded=0;orthogonalLoop=1;jettySize=auto;html=1;exitX=0.5;exitY=1;exitDx=0;exitDy=0;entryX=0.5;entryY=0;entryDx=0;entryDy=0;fillColor=#fff2cc;strokeColor=#d6b656;endArrow=none;endFill=0;" edge="1" parent="1" source="9nBWldFxYlAShyo2GWVR-4" target="9nBWldFxYlAShyo2GWVR-24">
          <mxGeometry relative="1" as="geometry" />
        </mxCell>
        <mxCell id="9nBWldFxYlAShyo2GWVR-34" style="edgeStyle=orthogonalEdgeStyle;rounded=0;orthogonalLoop=1;jettySize=auto;html=1;exitX=0.5;exitY=1;exitDx=0;exitDy=0;entryX=0.5;entryY=0;entryDx=0;entryDy=0;fillColor=#fff2cc;strokeColor=#d6b656;endArrow=none;endFill=0;" edge="1" parent="1" source="9nBWldFxYlAShyo2GWVR-4" target="9nBWldFxYlAShyo2GWVR-23">
          <mxGeometry relative="1" as="geometry" />
        </mxCell>
        <mxCell id="9nBWldFxYlAShyo2GWVR-4" value="集团办公室" style="rounded=0;whiteSpace=wrap;html=1;fillColor=#fff2cc;strokeColor=#d6b656;" vertex="1" parent="1">
          <mxGeometry x="840" y="190" width="120" height="60" as="geometry" />
        </mxCell>
        <mxCell id="9nBWldFxYlAShyo2GWVR-6" value="销售部" style="rounded=0;whiteSpace=wrap;html=1;fillColor=#fff2cc;strokeColor=#d6b656;" vertex="1" parent="1">
          <mxGeometry x="340" y="330" width="120" height="60" as="geometry" />
        </mxCell>
        <mxCell id="9nBWldFxYlAShyo2GWVR-12" style="edgeStyle=orthogonalEdgeStyle;rounded=0;orthogonalLoop=1;jettySize=auto;html=1;fillColor=#fff2cc;strokeColor=#d6b656;endArrow=none;endFill=0;" edge="1" parent="1" source="9nBWldFxYlAShyo2GWVR-11" target="G_AN2CLC8beRacx5l1sC-2">
          <mxGeometry relative="1" as="geometry" />
        </mxCell>
        <mxCell id="9nBWldFxYlAShyo2GWVR-11" value="采购部" style="rounded=0;whiteSpace=wrap;html=1;fillColor=#fff2cc;strokeColor=#d6b656;" vertex="1" parent="1">
          <mxGeometry x="480" y="330" width="120" height="60" as="geometry" />
        </mxCell>
        <mxCell id="9nBWldFxYlAShyo2GWVR-17" value="" style="edgeStyle=orthogonalEdgeStyle;rounded=0;orthogonalLoop=1;jettySize=auto;html=1;fillColor=#fff2cc;strokeColor=#d6b656;endArrow=none;endFill=0;" edge="1" parent="1" source="9nBWldFxYlAShyo2GWVR-13" target="9nBWldFxYlAShyo2GWVR-16">
          <mxGeometry relative="1" as="geometry" />
        </mxCell>
        <mxCell id="9nBWldFxYlAShyo2GWVR-38" style="edgeStyle=orthogonalEdgeStyle;rounded=0;orthogonalLoop=1;jettySize=auto;html=1;exitX=0.5;exitY=1;exitDx=0;exitDy=0;entryX=0.5;entryY=0;entryDx=0;entryDy=0;fillColor=#fff2cc;strokeColor=#d6b656;endArrow=none;endFill=0;" edge="1" parent="1" source="9nBWldFxYlAShyo2GWVR-13" target="9nBWldFxYlAShyo2GWVR-21">
          <mxGeometry relative="1" as="geometry" />
        </mxCell>
        <mxCell id="9nBWldFxYlAShyo2GWVR-39" style="edgeStyle=orthogonalEdgeStyle;rounded=0;orthogonalLoop=1;jettySize=auto;html=1;exitX=0.5;exitY=1;exitDx=0;exitDy=0;entryX=0.5;entryY=0;entryDx=0;entryDy=0;fillColor=#fff2cc;strokeColor=#d6b656;endArrow=none;endFill=0;" edge="1" parent="1" source="9nBWldFxYlAShyo2GWVR-13" target="9nBWldFxYlAShyo2GWVR-28">
          <mxGeometry relative="1" as="geometry" />
        </mxCell>
        <mxCell id="9nBWldFxYlAShyo2GWVR-40" style="edgeStyle=orthogonalEdgeStyle;rounded=0;orthogonalLoop=1;jettySize=auto;html=1;exitX=0.5;exitY=1;exitDx=0;exitDy=0;entryX=0.5;entryY=0;entryDx=0;entryDy=0;fillColor=#fff2cc;strokeColor=#d6b656;endArrow=none;endFill=0;" edge="1" parent="1" source="9nBWldFxYlAShyo2GWVR-13" target="9nBWldFxYlAShyo2GWVR-29">
          <mxGeometry relative="1" as="geometry" />
        </mxCell>
        <mxCell id="9nBWldFxYlAShyo2GWVR-13" value="品控部" style="rounded=0;whiteSpace=wrap;html=1;fillColor=#fff2cc;strokeColor=#d6b656;" vertex="1" parent="1">
          <mxGeometry x="190" y="330" width="120" height="60" as="geometry" />
        </mxCell>
        <mxCell id="9nBWldFxYlAShyo2GWVR-41" style="edgeStyle=orthogonalEdgeStyle;rounded=0;orthogonalLoop=1;jettySize=auto;html=1;exitX=0.5;exitY=1;exitDx=0;exitDy=0;fillColor=#fff2cc;strokeColor=#d6b656;endArrow=none;endFill=0;" edge="1" parent="1" source="9nBWldFxYlAShyo2GWVR-16" target="9nBWldFxYlAShyo2GWVR-18">
          <mxGeometry relative="1" as="geometry" />
        </mxCell>
        <mxCell id="9nBWldFxYlAShyo2GWVR-42" style="edgeStyle=orthogonalEdgeStyle;rounded=0;orthogonalLoop=1;jettySize=auto;html=1;exitX=0.5;exitY=1;exitDx=0;exitDy=0;entryX=0.5;entryY=0;entryDx=0;entryDy=0;fillColor=#fff2cc;strokeColor=#d6b656;endArrow=none;endFill=0;" edge="1" parent="1" source="9nBWldFxYlAShyo2GWVR-16" target="9nBWldFxYlAShyo2GWVR-19">
          <mxGeometry relative="1" as="geometry" />
        </mxCell>
        <mxCell id="9nBWldFxYlAShyo2GWVR-43" style="edgeStyle=orthogonalEdgeStyle;rounded=0;orthogonalLoop=1;jettySize=auto;html=1;exitX=0.5;exitY=1;exitDx=0;exitDy=0;fillColor=#fff2cc;strokeColor=#d6b656;endArrow=none;endFill=0;" edge="1" parent="1" source="9nBWldFxYlAShyo2GWVR-16" target="9nBWldFxYlAShyo2GWVR-20">
          <mxGeometry relative="1" as="geometry" />
        </mxCell>
        <mxCell id="9nBWldFxYlAShyo2GWVR-16" value="生产车间" style="rounded=0;whiteSpace=wrap;html=1;fillColor=#fff2cc;strokeColor=#d6b656;" vertex="1" parent="1">
          <mxGeometry x="-280" y="330" width="120" height="60" as="geometry" />
        </mxCell>
        <mxCell id="9nBWldFxYlAShyo2GWVR-44" style="edgeStyle=orthogonalEdgeStyle;rounded=0;orthogonalLoop=1;jettySize=auto;html=1;exitX=0.5;exitY=1;exitDx=0;exitDy=0;entryX=0.5;entryY=0;entryDx=0;entryDy=0;fillColor=#fff2cc;strokeColor=#d6b656;endArrow=none;endFill=0;" edge="1" parent="1" source="9nBWldFxYlAShyo2GWVR-18" target="9nBWldFxYlAShyo2GWVR-30">
          <mxGeometry relative="1" as="geometry" />
        </mxCell>
        <mxCell id="9nBWldFxYlAShyo2GWVR-45" style="edgeStyle=orthogonalEdgeStyle;rounded=0;orthogonalLoop=1;jettySize=auto;html=1;exitX=0.5;exitY=1;exitDx=0;exitDy=0;entryX=0.5;entryY=0;entryDx=0;entryDy=0;fillColor=#fff2cc;strokeColor=#d6b656;endArrow=none;endFill=0;" edge="1" parent="1" source="9nBWldFxYlAShyo2GWVR-18" target="9nBWldFxYlAShyo2GWVR-31">
          <mxGeometry relative="1" as="geometry" />
        </mxCell>
        <mxCell id="9nBWldFxYlAShyo2GWVR-18" value="仓管" style="rounded=0;whiteSpace=wrap;html=1;fillColor=#fff2cc;strokeColor=#d6b656;" vertex="1" parent="1">
          <mxGeometry x="-480" y="450" width="120" height="60" as="geometry" />
        </mxCell>
        <mxCell id="9nBWldFxYlAShyo2GWVR-49" style="edgeStyle=orthogonalEdgeStyle;rounded=0;orthogonalLoop=1;jettySize=auto;html=1;exitX=0.5;exitY=1;exitDx=0;exitDy=0;fillColor=#fff2cc;strokeColor=#d6b656;endArrow=none;endFill=0;" edge="1" parent="1" source="9nBWldFxYlAShyo2GWVR-19" target="9nBWldFxYlAShyo2GWVR-48">
          <mxGeometry relative="1" as="geometry" />
        </mxCell>
        <mxCell id="9nBWldFxYlAShyo2GWVR-19" value="生产计划" style="rounded=0;whiteSpace=wrap;html=1;fillColor=#fff2cc;strokeColor=#d6b656;" vertex="1" parent="1">
          <mxGeometry x="-280" y="450" width="120" height="60" as="geometry" />
        </mxCell>
        <mxCell id="9nBWldFxYlAShyo2GWVR-20" value="设备部" style="rounded=0;whiteSpace=wrap;html=1;fillColor=#fff2cc;strokeColor=#d6b656;" vertex="1" parent="1">
          <mxGeometry x="-100" y="450" width="120" height="60" as="geometry" />
        </mxCell>
        <mxCell id="9nBWldFxYlAShyo2GWVR-21" value="品控主管" style="rounded=0;whiteSpace=wrap;html=1;fillColor=#fff2cc;strokeColor=#d6b656;" vertex="1" parent="1">
          <mxGeometry x="50" y="450" width="120" height="60" as="geometry" />
        </mxCell>
        <mxCell id="9nBWldFxYlAShyo2GWVR-61" style="edgeStyle=orthogonalEdgeStyle;rounded=0;orthogonalLoop=1;jettySize=auto;html=1;exitX=0.5;exitY=1;exitDx=0;exitDy=0;entryX=0.5;entryY=0;entryDx=0;entryDy=0;strokeColor=#d6b656;endArrow=none;endFill=0;fillColor=#fff2cc;" edge="1" parent="1" source="9nBWldFxYlAShyo2GWVR-23" target="9nBWldFxYlAShyo2GWVR-27">
          <mxGeometry relative="1" as="geometry" />
        </mxCell>
        <mxCell id="9nBWldFxYlAShyo2GWVR-23" value="人力资源" style="rounded=0;whiteSpace=wrap;html=1;fillColor=#fff2cc;strokeColor=#d6b656;" vertex="1" parent="1">
          <mxGeometry x="950" y="330" width="120" height="60" as="geometry" />
        </mxCell>
        <mxCell id="9nBWldFxYlAShyo2GWVR-35" style="edgeStyle=orthogonalEdgeStyle;rounded=0;orthogonalLoop=1;jettySize=auto;html=1;exitX=0.5;exitY=1;exitDx=0;exitDy=0;fillColor=#fff2cc;strokeColor=#d6b656;endArrow=none;endFill=0;" edge="1" parent="1" source="9nBWldFxYlAShyo2GWVR-24" target="9nBWldFxYlAShyo2GWVR-25">
          <mxGeometry relative="1" as="geometry" />
        </mxCell>
        <mxCell id="9nBWldFxYlAShyo2GWVR-36" style="edgeStyle=orthogonalEdgeStyle;rounded=0;orthogonalLoop=1;jettySize=auto;html=1;exitX=0.5;exitY=1;exitDx=0;exitDy=0;entryX=0.5;entryY=0;entryDx=0;entryDy=0;fillColor=#fff2cc;strokeColor=#d6b656;endArrow=none;endFill=0;" edge="1" parent="1" source="9nBWldFxYlAShyo2GWVR-24" target="9nBWldFxYlAShyo2GWVR-26">
          <mxGeometry relative="1" as="geometry" />
        </mxCell>
        <mxCell id="9nBWldFxYlAShyo2GWVR-24" value="财务部" style="rounded=0;whiteSpace=wrap;html=1;fillColor=#fff2cc;strokeColor=#d6b656;" vertex="1" parent="1">
          <mxGeometry x="720" y="330" width="120" height="60" as="geometry" />
        </mxCell>
        <mxCell id="9nBWldFxYlAShyo2GWVR-25" value="总账会计" style="rounded=0;whiteSpace=wrap;html=1;fillColor=#fff2cc;strokeColor=#d6b656;" vertex="1" parent="1">
          <mxGeometry x="650" y="450" width="120" height="60" as="geometry" />
        </mxCell>
        <mxCell id="9nBWldFxYlAShyo2GWVR-26" value="出纳" style="rounded=0;whiteSpace=wrap;html=1;fillColor=#fff2cc;strokeColor=#d6b656;" vertex="1" parent="1">
          <mxGeometry x="800" y="450" width="120" height="60" as="geometry" />
        </mxCell>
        <mxCell id="9nBWldFxYlAShyo2GWVR-27" value="人事专员" style="rounded=0;whiteSpace=wrap;html=1;fillColor=#fff2cc;strokeColor=#d6b656;" vertex="1" parent="1">
          <mxGeometry x="950" y="450" width="120" height="60" as="geometry" />
        </mxCell>
        <mxCell id="9nBWldFxYlAShyo2GWVR-28" value="检验员" style="rounded=0;whiteSpace=wrap;html=1;fillColor=#fff2cc;strokeColor=#d6b656;" vertex="1" parent="1">
          <mxGeometry x="190" y="450" width="120" height="60" as="geometry" />
        </mxCell>
        <mxCell id="9nBWldFxYlAShyo2GWVR-29" value="现场品控" style="rounded=0;whiteSpace=wrap;html=1;fillColor=#fff2cc;strokeColor=#d6b656;" vertex="1" parent="1">
          <mxGeometry x="340" y="450" width="120" height="60" as="geometry" />
        </mxCell>
        <mxCell id="9nBWldFxYlAShyo2GWVR-30" value="原料" style="rounded=0;whiteSpace=wrap;html=1;fillColor=#fff2cc;strokeColor=#d6b656;" vertex="1" parent="1">
          <mxGeometry x="-560" y="585" width="120" height="60" as="geometry" />
        </mxCell>
        <mxCell id="9nBWldFxYlAShyo2GWVR-31" value="生品" style="rounded=0;whiteSpace=wrap;html=1;fillColor=#fff2cc;strokeColor=#d6b656;" vertex="1" parent="1">
          <mxGeometry x="-420" y="585" width="120" height="60" as="geometry" />
        </mxCell>
        <mxCell id="9nBWldFxYlAShyo2GWVR-48" value="文员" style="rounded=0;whiteSpace=wrap;html=1;fillColor=#fff2cc;strokeColor=#d6b656;" vertex="1" parent="1">
          <mxGeometry x="-280" y="585" width="120" height="60" as="geometry" />
        </mxCell>
      </root>
    </mxGraphModel>
  </diagram>
</mxfile>
